<svg xmlns="http://www.w3.org/2000/svg" viewBox="0 0 600 450" role="img" aria-label="Adansonia digitata">
  <defs>
    <linearGradient id="sky" x1="0" y1="0" x2="0" y2="1">
      <stop offset="0" stop-color="#bfe3ff"/><stop offset="1" stop-color="#eaf6ff"/>
    </linearGradient>
  </defs>
  <rect width="600" height="450" fill="url(#sky)"/>
  <rect y="330" width="600" height="120" fill="#d9c39a"/>
  <ellipse cx="300" cy="338" rx="220" ry="26" fill="#c7ad7e"/>
  <path d="M300 340 C268 250 268 210 300 150 C332 210 332 250 300 340 Z" fill="#7a5a3a"/>
  <path d="M300 175 C220 150 170 120 150 95 M300 170 C260 120 250 90 245 70 M300 170 C340 120 350 90 358 68 M300 175 C380 150 430 120 452 96"
        fill="none" stroke="#7a5a3a" stroke-width="10" stroke-linecap="round"/>
  <g fill="#5fa84f">
    <circle cx="150" cy="92" r="34"/><circle cx="245" cy="66" r="38"/>
    <circle cx="300" cy="56" r="42"/><circle cx="358" cy="64" r="38"/>
    <circle cx="452" cy="92" r="34"/><circle cx="300" cy="100" r="40"/>
  </g>
  <text x="300" y="425" text-anchor="middle" font-family="Georgia, serif" font-style="italic" font-size="22" fill="#1f2937">Adansonia digitata</text>
  <text x="588" y="22" text-anchor="end" font-family="Arial, sans-serif" font-size="12" fill="#64748b">imagen de ejemplo</text>
</svg>
